<svg width="30" height="30" viewBox="0 0 30 30" fill="none" xmlns="http://www.w3.org/2000/svg">
  <circle cx="15" cy="15" r="14.5" stroke="#2678F4"/>
  <path d="M21.3157 11.0279L12.3458 20.4424C12.2669 20.525 12.1601 20.5714 12.0486 20.5714C11.9372 20.5714 11.8303 20.525 11.7515 20.4424L7.82714 16.3235C7.75287 16.2399 7.71244 16.1292 7.71436 16.0149C7.71628 15.9006 7.76041 15.7915 7.83745 15.7106C7.91448 15.6298 8.01841 15.5834 8.12734 15.5814C8.23627 15.5794 8.3417 15.6219 8.4214 15.6998L12.0486 19.5061L20.7215 10.4041C20.8012 10.3262 20.9066 10.2838 21.0155 10.2858C21.1245 10.2878 21.2284 10.3341 21.3054 10.415C21.3825 10.4958 21.4266 10.6049 21.4285 10.7192C21.4304 10.8336 21.39 10.9442 21.3157 11.0279Z" fill="#2678F4" stroke="#2678F4"/>
</svg>
