<svg width="22" height="25" viewBox="0 0 22 25" fill="none" xmlns="http://www.w3.org/2000/svg">
<path d="M3.24749 24.353C2.85467 24.3522 2.46881 24.2473 2.12785 24.0484C1.3601 23.6049 0.882812 22.7441 0.882812 21.8095V2.89655C0.882812 1.95938 1.3601 1.10112 2.12785 0.657645C2.47693 0.453148 2.87348 0.347985 3.27607 0.353148C3.67865 0.35831 4.07248 0.473609 4.4164 0.686993L20.2737 10.3626C20.6042 10.5738 20.8766 10.8672 21.0655 11.2151C21.2543 11.563 21.3534 11.9541 21.3534 12.3517C21.3534 12.7493 21.2543 13.1404 21.0655 13.4884C20.8766 13.8363 20.6042 14.1296 20.2737 14.3408L4.41384 24.0191C4.06189 24.2359 3.65876 24.3514 3.24749 24.353Z" fill="#2678F4"/>
</svg>
